<svg width="83" height="80" viewBox="0 0 83 80" fill="none" xmlns="http://www.w3.org/2000/svg">
<g clip-path="url(#clip0_982_4401)">
<path d="M14.6334 6.44812e-06H67.6249C69.5335 -0.00179242 71.4237 0.372807 73.1874 1.10237C74.951 1.83193 76.5535 2.90212 77.9031 4.25171C79.2527 5.60129 80.3229 7.20377 81.0524 8.96744C81.782 10.7311 82.1566 12.6213 82.1548 14.5299V65.4701C82.1566 67.3787 81.782 69.2689 81.0524 71.0326C80.3229 72.7962 79.2527 74.3987 77.9031 75.7483C76.5535 77.0979 74.951 78.1681 73.1874 78.8976C71.4237 79.6272 69.5335 80.0018 67.6249 80H14.6334C12.7248 80.0018 10.8346 79.6272 9.07095 78.8976C7.30729 78.1681 5.70481 77.0979 4.35522 75.7483C3.00564 74.3987 1.93544 72.7962 1.20588 71.0326C0.476323 69.2689 0.101723 67.3787 0.103522 65.4701V14.5299C0.101723 12.6213 0.476323 10.7311 1.20588 8.96744C1.93544 7.20377 3.00564 5.60129 4.35522 4.25171C5.70481 2.90212 7.30729 1.83193 9.07095 1.10237C10.8346 0.372807 12.7248 -0.00179242 14.6334 6.44812e-06V6.44812e-06Z" fill="#00005B"/>
<path d="M33.0625 47.8631H20.3446L17.7463 55.9315C17.7173 56.0779 17.6345 56.2082 17.5143 56.2968C17.3942 56.3853 17.2452 56.4258 17.0967 56.4101H10.6694C10.2933 56.4101 10.1908 56.205 10.2933 55.7947L21.3019 24.2392C21.4044 23.8973 21.507 23.5896 21.6437 23.1793C21.7813 22.4466 21.85 21.7026 21.8489 20.9571C21.8386 20.8715 21.8611 20.7852 21.9118 20.7154C21.9626 20.6457 22.0378 20.5977 22.1224 20.5811H30.9771C31.2164 20.5811 31.3873 20.6836 31.4215 20.8546L43.9002 55.8973C44.0027 56.2734 43.9002 56.4443 43.5583 56.4443H36.413C36.2921 56.4559 36.1711 56.4246 36.071 56.3558C35.971 56.2871 35.8984 56.1852 35.866 56.0682L33.0625 47.8631ZM22.3275 41.0597H31.0113C30.8061 40.3417 30.5326 39.487 30.2249 38.5982C29.9172 37.7093 29.6096 36.6836 29.3019 35.658C28.9942 34.6323 28.6523 33.5725 28.3104 32.5127C27.9685 31.4528 27.6608 30.4614 27.3873 29.4699C27.1138 28.4785 26.8745 27.6238 26.6352 26.8033H26.5668C26.2596 28.2933 25.8715 29.7656 25.4044 31.2135C24.8916 32.8546 24.3788 34.564 23.8318 36.2734C23.3873 38.017 22.8403 39.6238 22.3275 41.0597Z" fill="#9999FF"/>
<path d="M64.1734 44.7179H53.3358C53.4652 45.7968 53.8267 46.8349 54.3957 47.7607C54.9998 48.6821 55.8704 49.3976 56.8914 49.8119C58.2733 50.4029 59.7647 50.6942 61.2675 50.6666C62.4613 50.6447 63.651 50.5189 64.823 50.2906C65.8656 50.1541 66.8875 49.89 67.8657 49.5042C68.0367 49.3675 68.1392 49.4359 68.1392 49.7777V55.0085C68.1332 55.1475 68.1103 55.2853 68.0709 55.4188C68.0091 55.5147 67.9275 55.5963 67.8316 55.6581C66.7381 56.1383 65.59 56.4827 64.4128 56.6837C62.8135 56.9913 61.1862 57.1288 59.5581 57.094C56.9598 57.094 54.7717 56.6837 52.9939 55.8974C51.321 55.1713 49.8446 54.0581 48.6863 52.6495C47.6038 51.3324 46.8012 49.8085 46.3273 48.1709C45.3255 44.7601 45.3731 41.1269 46.464 37.7436C47.0092 36.0318 47.8799 34.4414 49.0281 33.0598C50.1587 31.6936 51.5694 30.586 53.1649 29.8119C54.7717 29.0256 56.6863 28.7521 58.8743 28.7521C60.6973 28.7098 62.507 29.0717 64.1734 29.8119C65.574 30.4191 66.806 31.3578 67.7632 32.547C68.6719 33.7147 69.3664 35.0342 69.8145 36.4444C70.2492 37.7919 70.4685 39.1995 70.464 40.6154C70.464 41.4359 70.4298 42.1538 70.3957 42.8034C70.3615 43.453 70.2931 43.9316 70.2589 44.2393C70.2438 44.3577 70.1877 44.4671 70.1002 44.5483C70.0127 44.6295 69.8995 44.6775 69.7803 44.6837C69.5751 44.6837 69.1991 44.7179 68.6521 44.7521C67.9938 44.8268 67.3316 44.8611 66.6692 44.8547C65.8828 44.8547 65.0623 44.7179 64.1734 44.7179ZM53.3358 39.7265H60.5495C61.4384 39.7265 62.088 39.7265 62.4982 39.6923C62.7792 39.6689 63.0497 39.5748 63.2845 39.4188V39.0769C63.2859 38.6468 63.2166 38.2195 63.0794 37.8119C62.7801 36.8765 62.1847 36.0637 61.383 35.4963C60.5813 34.9289 59.6167 34.6377 58.635 34.6666C57.7071 34.6146 56.7841 34.8323 55.9772 35.2933C55.1703 35.7544 54.5142 36.4391 54.088 37.2649C53.6891 38.0327 53.4342 38.8669 53.3358 39.7265Z" fill="#9999FF"/>
</g>
<defs>
<clipPath id="clip0_982_4401">
<rect width="82.0513" height="80" fill="white" transform="translate(0.103516)"/>
</clipPath>
</defs>
</svg>
