<svg width="83" height="81" viewBox="0 0 83 81" fill="none" xmlns="http://www.w3.org/2000/svg">
<g id="After Effects" clip-path="url(#clip0_775_628)">
<g id="Layer 2">
<g id="Layer 1">
<g id="Layer 2_2">
<g id="Surfaces">
<g id="Video Audio Surface">
<g id="Outline no shadow">
<g id="Vector">
<path d="M15.0299 0.551764H68.0214C69.93 0.549965 71.8202 0.924565 73.5839 1.65412C75.3475 2.38368 76.95 3.45388 78.2996 4.80347C79.6492 6.15305 80.7194 7.75553 81.4489 9.51919C82.1785 11.2829 82.5531 13.1731 82.5513 15.0817V66.0219C82.5531 67.9305 82.1785 69.8207 81.4489 71.5843C80.7194 73.348 79.6492 74.9505 78.2996 76.3001C76.95 77.6497 75.3475 78.7198 73.5839 79.4494C71.8202 80.179 69.93 80.5536 68.0214 80.5518H15.0299C13.1213 80.5536 11.2311 80.179 9.46744 79.4494C7.70377 78.7198 6.10129 77.6497 4.75171 76.3001C3.40212 74.9505 2.33193 73.348 1.60237 71.5843C0.872807 69.8207 0.498208 67.9305 0.500006 66.0219V15.0817C0.498208 13.1731 0.872807 11.2829 1.60237 9.51919C2.33193 7.75553 3.40212 6.15305 4.75171 4.80347C6.10129 3.45388 7.70377 2.38368 9.46744 1.65412C11.2311 0.924565 13.1213 0.549965 15.0299 0.551764Z" fill="#00005B"/>
<path d="M82.5513 66.0219V15.0817C82.5531 13.1731 82.1785 11.2829 81.4489 9.51919C80.7194 7.75553 79.6492 6.15305 78.2996 4.80347C76.95 3.45388 75.3475 2.38368 73.5839 1.65412C71.8202 0.924565 69.93 0.549965 68.0214 0.551764L82.5513 66.0219ZM82.5513 66.0219C82.5531 67.9305 82.1785 69.8207 81.4489 71.5843C80.7194 73.348 79.6492 74.9505 78.2996 76.3001C76.95 77.6497 75.3475 78.7198 73.5839 79.4494C71.8202 80.179 69.93 80.5536 68.0214 80.5518H15.0299M82.5513 66.0219L15.0299 80.5518M15.0299 80.5518C13.1213 80.5536 11.2311 80.179 9.46744 79.4494M15.0299 80.5518L9.46744 79.4494M9.46744 79.4494C7.70377 78.7198 6.10129 77.6497 4.75171 76.3001M9.46744 79.4494L4.75171 76.3001M4.75171 76.3001C3.40212 74.9505 2.33193 73.348 1.60237 71.5843M4.75171 76.3001L1.60237 71.5843M1.60237 71.5843C0.872807 69.8207 0.498208 67.9305 0.500006 66.0219L1.60237 71.5843ZM15.0295 1.05176H15.0299L68.0214 1.05176L68.0219 1.05176C69.8647 1.05003 71.6898 1.41172 73.3927 2.11615C75.0956 2.82058 76.6429 3.85392 77.946 5.15702C79.2491 6.46012 80.2825 8.0074 80.9869 9.71032C81.6913 11.4132 82.053 13.2383 82.0513 15.0812V15.0817V66.0219V66.0223C82.053 67.8652 81.6913 69.6903 80.9869 71.3932C80.2825 73.0961 79.2491 74.6434 77.946 75.9465C76.6429 77.2496 75.0956 78.283 73.3927 78.9874C71.6898 79.6918 69.8647 80.0535 68.0219 80.0518H68.0214H15.0299H15.0294C13.1866 80.0535 11.3615 79.6918 9.65856 78.9874C7.95565 78.283 6.40836 77.2496 5.10526 75.9465C3.80216 74.6434 2.76883 73.0961 2.0644 71.3932C1.35997 69.6903 0.998269 67.8652 1.00001 66.0223V66.0219L1.00001 15.0817L1.00001 15.0812C0.998269 13.2383 1.35997 11.4132 2.0644 9.71032C2.76883 8.0074 3.80216 6.46012 5.10526 5.15702C6.40836 3.85392 7.95565 2.82058 9.65856 2.11615C11.3615 1.41172 13.1866 1.05003 15.0295 1.05176Z" stroke="white" stroke-opacity="0.1"/>
</g>
</g>
</g>
</g>
<g id="Outlined Mnemonics Logos">
<g id="Ae">
<path id="Vector_2" d="M33.459 48.4149H20.7411L18.1428 56.4832C18.1138 56.6297 18.031 56.76 17.9108 56.8485C17.7906 56.9371 17.6417 56.9775 17.4932 56.9619H11.0659C10.6898 56.9619 10.5872 56.7567 10.6898 56.3465L21.6983 24.7909C21.8009 24.4491 21.9035 24.1414 22.0402 23.7311C22.1778 22.9984 22.2465 22.2544 22.2454 21.5089C22.2351 21.4233 22.2576 21.3369 22.3083 21.2672C22.359 21.1974 22.4342 21.1494 22.5189 21.1328H31.3736C31.6129 21.1328 31.7838 21.2354 31.818 21.4063L44.2966 56.4491C44.3992 56.8251 44.2966 56.9961 43.9548 56.9961H36.8095C36.6886 57.0077 36.5675 56.9764 36.4675 56.9076C36.3675 56.8388 36.2949 56.737 36.2624 56.62L33.459 48.4149ZM22.724 41.6114H31.4077C31.2026 40.8935 30.9291 40.0388 30.6214 39.1499C30.3137 38.261 30.006 37.2354 29.6983 36.2097C29.3907 35.1841 29.0488 34.1243 28.7069 33.0644C28.365 32.0046 28.0573 31.0132 27.7838 30.0217C27.5103 29.0302 27.271 28.1755 27.0317 27.355H26.9633C26.656 28.8451 26.268 30.3174 25.8009 31.7653C25.2881 33.4063 24.7753 35.1157 24.2283 36.8251C23.7838 38.5687 23.2368 40.1755 22.724 41.6114Z" fill="#9999FF"/>
<path id="Vector_3" d="M64.5699 45.2697H53.7323C53.8616 46.3486 54.2232 47.3866 54.7921 48.3124C55.3963 49.2339 56.2669 49.9494 57.2879 50.3637C58.6698 50.9547 60.1612 51.246 61.6639 51.2184C62.8578 51.1965 64.0475 51.0707 65.2195 50.8423C66.2621 50.7058 67.284 50.4417 68.2622 50.056C68.4332 49.9192 68.5357 49.9876 68.5357 50.3295V55.5603C68.5297 55.6993 68.5068 55.8371 68.4674 55.9705C68.4056 56.0665 68.324 56.1481 68.228 56.2098C67.1346 56.69 65.9864 57.0345 64.8092 57.2355C63.21 57.543 61.5827 57.6805 59.9545 57.6457C57.3562 57.6457 55.1682 57.2355 53.3904 56.4492C51.7175 55.7231 50.2411 54.6099 49.0827 53.2013C48.0003 51.8842 47.1977 50.3603 46.7238 48.7227C45.722 45.3119 45.7696 41.6786 46.8605 38.2953C47.4057 36.5835 48.2764 34.9932 49.4246 33.6116C50.5552 32.2454 51.9659 31.1378 53.5614 30.3637C55.1682 29.5774 57.0827 29.3039 59.2708 29.3039C61.0937 29.2616 62.9035 29.6235 64.5699 30.3637C65.9705 30.9709 67.2025 31.9095 68.1597 33.0987C69.0684 34.2664 69.7629 35.586 70.2109 36.9962C70.6457 38.3436 70.8649 39.7513 70.8605 41.1671C70.8605 41.9876 70.8263 42.7056 70.7921 43.3551C70.758 44.0047 70.6896 44.4833 70.6554 44.791C70.6403 44.9095 70.5842 45.0188 70.4967 45.1001C70.4092 45.1813 70.296 45.2292 70.1768 45.2355C69.9716 45.2355 69.5956 45.2697 69.0486 45.3039C68.3903 45.3786 67.7281 45.4129 67.0656 45.4064C66.2793 45.4064 65.4588 45.2697 64.5699 45.2697ZM53.7323 40.2782H60.946C61.8349 40.2782 62.4845 40.2782 62.8947 40.244C63.1757 40.2206 63.4462 40.1265 63.681 39.9705V39.6286C63.6824 39.1986 63.6131 38.7713 63.4759 38.3637C63.1766 37.4282 62.5812 36.6155 61.7795 36.0481C60.9777 35.4807 60.0132 35.1895 59.0315 35.2184C58.1036 35.1664 57.1805 35.384 56.3737 35.8451C55.5668 36.3061 54.9107 36.9909 54.4844 37.8167C54.0856 38.5844 53.8307 39.4187 53.7323 40.2782Z" fill="#9999FF"/>
</g>
</g>
</g>
</g>
</g>
</g>
<defs>
<clipPath id="clip0_775_628">
<rect width="82.0513" height="80" fill="white" transform="translate(0.5 0.551758)"/>
</clipPath>
</defs>
</svg>
