<svg width="41" height="40" viewBox="0 0 41 40" fill="none" xmlns="http://www.w3.org/2000/svg">
<mask id="mask0_780_2031" style="mask-type:luminance" maskUnits="userSpaceOnUse" x="3" y="3" width="35" height="34">
<path d="M3.5 3H37.5V37H3.5V3Z" fill="white"/>
</mask>
<g mask="url(#mask0_780_2031)">
<path d="M23.0167 5.482C23.0167 6.85277 21.9055 7.964 20.5347 7.964C19.164 7.964 18.0527 6.85277 18.0527 5.482C18.0527 4.11123 19.164 3 20.5347 3C21.9055 3 23.0167 4.11123 23.0167 5.482Z" fill="#B3EE28"/>
<path fill-rule="evenodd" clip-rule="evenodd" d="M20.534 7.96411H16.284C12.5537 7.96411 9.38905 10.3865 8.2775 13.7441H8.124C5.57023 13.7441 3.5 15.8144 3.5 18.3681C3.5 20.9219 5.57023 22.9921 8.124 22.9921H8.23376C9.30401 26.4201 12.5035 28.9081 16.284 28.9081H24.784C28.5645 28.9081 31.764 26.4201 32.8342 22.9921H32.876C35.4297 22.9921 37.5 20.9219 37.5 18.3681C37.5 15.8144 35.4297 13.7441 32.876 13.7441H32.7905C31.6789 10.3865 28.5143 7.96411 24.784 7.96411H20.534ZM28.7747 17.8241C28.7747 19.5674 27.3613 20.9807 25.618 20.9807C23.8746 20.9807 22.4613 19.5674 22.4613 17.8241C22.4613 16.0807 23.8746 14.6674 25.618 14.6674C27.3613 14.6674 28.7747 16.0807 28.7747 17.8241ZM15.3606 20.9807C17.104 20.9807 18.5173 19.5674 18.5173 17.8241C18.5173 16.0807 17.104 14.6674 15.3606 14.6674C13.6173 14.6674 12.204 16.0807 12.204 17.8241C12.204 19.5674 13.6173 20.9807 15.3606 20.9807Z" fill="#B3EE28"/>
<path d="M9.61328 37.0002C11.6505 33.0428 15.7757 30.3362 20.5331 30.3362C25.2905 30.3362 29.4157 33.0428 31.4529 37.0002H9.61328Z" fill="#B3EE28"/>
</g>
</svg>
