<svg width="40" height="40" viewBox="0 0 40 40" fill="none" xmlns="http://www.w3.org/2000/svg">
<path d="M12.1229 29.861C14.506 29.1705 16.9705 28.8 19.4513 28.7593V20.5405H10.709C10.7319 23.699 11.2081 26.8378 12.1229 29.861Z" fill="#B3EE28"/>
<path d="M20.5449 29.8547V37.4847C21.5804 37.4541 22.6111 37.3315 23.6248 37.1183C25.1899 35.787 26.5348 33.6189 27.5224 30.8996C25.2524 30.247 22.9065 29.8958 20.5449 29.8547Z" fill="#B3EE28"/>
<path d="M7.97461 32.6959C9.81205 34.4391 12.0057 35.763 14.4043 36.5763C13.1328 34.9626 12.1389 33.1485 11.4635 31.2083C10.2625 31.6097 9.09577 32.1072 7.97461 32.6959Z" fill="#B3EE28"/>
<path d="M11.1109 9.81287C9.75463 9.35751 8.44056 8.78499 7.18355 8.10181C4.30333 11.1925 2.6438 15.2242 2.51367 19.4469H9.61577C9.64131 16.1798 10.145 12.9341 11.1109 9.81287Z" fill="#B3EE28"/>
<path d="M23.6248 2.88211C22.6111 2.6689 21.5804 2.54625 20.5449 2.51562V10.1431C22.9055 10.0996 25.2501 9.7451 27.518 9.08873C26.5309 6.37495 25.1875 4.21149 23.6248 2.88211Z" fill="#B3EE28"/>
<path d="M32.0073 7.2907C30.1727 5.55414 27.9842 4.23501 25.5918 3.42383C26.8596 5.03246 27.8512 6.84064 28.5261 8.77445C29.724 8.37309 30.8881 7.87694 32.0073 7.2907Z" fill="#B3EE28"/>
<path d="M10.709 19.4467H19.4512V11.2396C16.9708 11.1966 14.5071 10.8244 12.1248 10.1328C11.2098 13.1537 10.733 16.2903 10.709 19.4467Z" fill="#B3EE28"/>
<path d="M16.372 37.1182C17.3857 37.3313 18.4164 37.4539 19.4518 37.4845V29.8528C17.0898 29.8929 14.7434 30.2432 12.4727 30.8946C13.4604 33.6161 14.8059 35.786 16.372 37.1182Z" fill="#B3EE28"/>
<path d="M9.61588 20.5403H2.51367C2.64044 24.7652 4.29833 28.8001 7.17863 31.8936C8.4362 31.2089 9.75119 30.6353 11.1086 30.1795C10.1432 27.0565 9.64027 23.809 9.61588 20.5403Z" fill="#B3EE28"/>
<path d="M14.4065 3.42383C12.0129 4.23542 9.82341 5.55546 7.98828 7.29327C9.10723 7.88123 10.2715 8.37861 11.4699 8.78063C12.1449 6.84455 13.1373 5.03425 14.4065 3.42383Z" fill="#B3EE28"/>
<path d="M30.3805 20.5403C30.3561 23.8101 29.8528 27.0587 28.8867 30.1826C30.2448 30.6366 31.5605 31.2087 32.8187 31.8924C35.6984 28.799 37.3559 24.7646 37.4827 20.5403L30.3805 20.5403Z" fill="#B3EE28"/>
<path d="M30.3801 19.4468H37.4822C37.3519 15.2208 35.6898 11.1862 32.8055 8.09473C31.5497 8.77706 30.2372 9.34955 28.8828 9.8058C29.8502 12.9291 30.3546 16.1772 30.3801 19.4468Z" fill="#B3EE28"/>
<path d="M29.2873 20.5403H20.5449V28.7611C23.0254 28.8027 25.4895 29.1735 27.8724 29.8638C28.7878 26.8397 29.2643 23.6998 29.2873 20.5403Z" fill="#B3EE28"/>
<path d="M25.5918 36.5763C27.9878 35.7639 30.1793 34.442 32.0156 32.7016C30.8957 32.113 29.7301 31.6158 28.5302 31.2148C27.8549 33.1527 26.8619 34.9646 25.5918 36.5763Z" fill="#B3EE28"/>
<path d="M12.4766 9.09693C14.7459 9.75089 17.0913 10.1036 19.4526 10.146V2.51562C18.4171 2.54622 17.3864 2.66882 16.3727 2.882C14.8083 4.2128 13.464 6.37938 12.4766 9.09693Z" fill="#B3EE28"/>
<path d="M27.8681 10.1226C25.4874 10.8175 23.0246 11.1921 20.5449 11.2365V19.4465H29.2871C29.2632 16.2866 28.7853 13.1465 27.8681 10.1226Z" fill="#B3EE28"/>
</svg>
