<svg width="41" height="40" viewBox="0 0 41 40" fill="none" xmlns="http://www.w3.org/2000/svg">
<path d="M33.9348 10.7304H30.387L28.4283 7.77391C27.6891 6.66522 26.3957 6 25.0652 6H16.9348C15.6043 6 14.3109 6.66522 13.5717 7.77391L11.613 10.7304H8.06522C5.81087 10.7304 4 12.5413 4 14.7957V29.1348C4 31.3891 5.81087 33.2 8.06522 33.2H33.9348C36.1891 33.2 38 31.3891 38 29.1348V14.7957C38 12.5413 36.1891 10.7304 33.9348 10.7304ZM21 29.8739C15.937 29.8739 11.8348 25.7717 11.8348 20.7087C11.8348 15.6457 15.937 11.5804 21 11.5804C26.063 11.5804 30.1652 15.6826 30.1652 20.7457C30.1652 25.7717 26.063 29.8739 21 29.8739ZM33.4174 16.4587C33.3804 16.4587 33.3435 16.4587 33.2696 16.4587H31.7913C31.1261 16.4217 30.6087 15.8674 30.6457 15.2022C30.6826 14.5739 31.163 14.0935 31.7913 14.0565H33.2696C33.9348 14.0196 34.4891 14.537 34.5261 15.2022C34.563 15.8674 34.0826 16.4217 33.4174 16.4587Z" fill="#B3EE28"/>
<path d="M21.0004 15.646C18.1917 15.646 15.9004 17.9373 15.9004 20.746C15.9004 23.5547 18.1917 25.809 21.0004 25.809C23.8091 25.809 26.1004 23.5177 26.1004 20.709C26.1004 17.9003 23.8091 15.646 21.0004 15.646Z" fill="#B3EE28"/>
</svg>
