<svg width="41" height="40" viewBox="0 0 41 40" fill="none" xmlns="http://www.w3.org/2000/svg">
<path d="M30.0225 33.3301H26.8997L26.2649 31.4258H14.737L14.1022 33.3301H10.9795C10.4533 33.3301 10.0273 33.7561 10.0273 34.2822C10.0273 34.8084 10.4533 35.2344 10.9795 35.2344H30.0225C30.5486 35.2344 30.9746 34.8084 30.9746 34.2822C30.9746 33.7561 30.5486 33.3301 30.0225 33.3301Z" fill="#B3EE28"/>
<path d="M30.0225 10.4785C29.497 10.4785 29.0703 10.9052 29.0703 11.4307C29.0703 11.9561 29.497 12.3828 30.0225 12.3828C30.5479 12.3828 30.9746 11.9561 30.9746 11.4307C30.9746 10.9052 30.5479 10.4785 30.0225 10.4785Z" fill="#B3EE28"/>
<path d="M33.8301 4.76562H7.10645C5.53143 4.76562 4.25 6.04706 4.25 7.62207V23.8086H10.0264V20.9521C10.0264 20.426 10.4524 20 10.9785 20H12.4496C12.5481 19.723 12.6606 19.4513 12.7881 19.1845L11.7474 18.1431C11.3755 17.7711 11.3755 17.1686 11.7474 16.7967L14.4402 14.1039C14.8122 13.7319 15.4147 13.7319 15.7866 14.1039L16.828 15.1453C17.0948 15.0178 17.3663 14.9045 17.6436 14.8058V13.335C17.6436 12.8088 18.0695 12.3828 18.5957 12.3828H22.4043C22.9305 12.3828 23.3564 12.8088 23.3564 13.335V14.8061C23.6334 14.9045 23.9052 15.0181 24.172 15.1453L25.2134 14.1039C25.5853 13.7322 26.1878 13.7322 26.5598 14.1039L29.2526 16.7967C29.6245 17.1686 29.6245 17.7714 29.2526 18.1431L28.2119 19.1845C28.3394 19.4515 28.4519 19.723 28.5504 20H30.0215C30.5476 20 30.9736 20.426 30.9736 20.9521V23.8086H36.75V7.62207C36.75 6.04706 35.4051 4.76562 33.8301 4.76562ZM30.0215 14.2871C28.4465 14.2871 27.165 13.0057 27.165 11.4307C27.165 9.85565 28.4465 8.57422 30.0215 8.57422C31.5965 8.57422 32.8779 9.85565 32.8779 11.4307C32.8779 13.0057 31.5965 14.2871 30.0215 14.2871Z" fill="#B3EE28"/>
<path d="M17.6445 22.8564C17.6445 23.1855 17.7204 23.5029 17.8293 23.8086H23.1727C23.2815 23.5029 23.3574 23.1855 23.3574 22.8564C23.3574 21.2814 22.076 20 20.501 20C18.9257 20 17.6445 21.2814 17.6445 22.8564Z" fill="#B3EE28"/>
<path d="M14.0738 21.1902C13.9652 21.6105 13.5858 21.9043 13.1514 21.9043H11.9297V23.8086H15.8635C15.7995 23.4949 15.7383 23.1798 15.7383 22.8564C15.7383 20.2316 17.8742 18.0957 20.499 18.0957C23.1239 18.0957 25.2598 20.2316 25.2598 22.8564C25.2598 23.1798 25.1985 23.4949 25.1345 23.8086H29.0684V21.9043H27.8467C27.4123 21.9043 27.0329 21.6105 26.9243 21.1902C26.7725 20.5998 26.5355 20.0288 26.2194 19.4932C25.9989 19.1195 26.0594 18.6434 26.3661 18.3365L27.232 17.4699L25.8856 16.1235L25.019 16.9901C24.712 17.298 24.235 17.3593 23.8613 17.1361C23.3267 16.821 22.7567 16.5829 22.1653 16.4312C21.745 16.3226 21.4512 15.9432 21.4512 15.5088V14.2871H19.5469V15.5088C19.5469 15.9432 19.253 16.3226 18.8328 16.4312C18.2414 16.5829 17.6713 16.821 17.1367 17.1361C16.7648 17.3593 16.2868 17.298 15.979 16.9901L15.1124 16.1235L13.766 17.4699L14.6319 18.3365C14.9386 18.6434 14.9991 19.1195 14.7787 19.4932C14.4626 20.0288 14.2255 20.5998 14.0738 21.1902Z" fill="#B3EE28"/>
<path d="M4.25 26.665C4.25 28.2401 5.53143 29.5215 7.10645 29.5215H33.8301C35.4051 29.5215 36.75 28.2401 36.75 26.665V25.7129H4.25V26.665Z" fill="#B3EE28"/>
</svg>
