<svg width="40" height="40" viewBox="0 0 40 40" fill="none" xmlns="http://www.w3.org/2000/svg">
<path d="M36.6673 13.3333C36.6673 12.5973 36.3687 11.9306 35.8867 11.4479L28.5533 4.11459C28.07 3.63192 27.4033 3.33325 26.6673 3.33325C25.3313 3.33325 24.234 4.31925 24.0407 5.60192L23.8867 5.44792C23.4033 4.96525 22.7367 4.66659 22.0007 4.66659C20.528 4.66659 19.334 5.86059 19.334 7.33325C19.334 8.06925 19.6327 8.73592 20.1147 9.21859L23.798 12.9019L12.9033 23.7979L9.21999 20.1146C8.73665 19.6319 8.06998 19.3333 7.33398 19.3333C5.86132 19.3333 4.66732 20.5273 4.66732 21.9999C4.66732 22.7359 4.96598 23.4026 5.44798 23.8853L5.60265 24.0399C4.31998 24.2333 3.33398 25.3299 3.33398 26.6666C3.33398 27.4026 3.63265 28.0693 4.11465 28.5519L11.448 35.8853C11.9313 36.3679 12.598 36.6666 13.334 36.6666C14.67 36.6666 15.7673 35.6806 15.9607 34.3979L16.1147 34.5519C16.598 35.0346 17.2647 35.3333 18.0007 35.3333C19.4733 35.3333 20.6673 34.1393 20.6673 32.6666C20.6673 31.9306 20.3687 31.2639 19.8867 30.7813L16.2033 27.0979L27.0987 16.2026L30.782 19.8859C31.2647 20.3679 31.9313 20.6666 32.6673 20.6666C34.14 20.6666 35.334 19.4726 35.334 17.9999C35.334 17.2639 35.0353 16.5973 34.5533 16.1146L34.3987 15.9599C35.6813 15.7666 36.6673 14.6699 36.6673 13.3333Z" fill="#B3EE28"/>
</svg>
