<svg width="83" height="80" viewBox="0 0 83 80" fill="none" xmlns="http://www.w3.org/2000/svg">
<g clip-path="url(#clip0_982_4329)">
<path d="M14.5299 6.44812e-06H67.5214C69.43 -0.00179242 71.3202 0.372807 73.0839 1.10237C74.8475 1.83193 76.45 2.90212 77.7996 4.25171C79.1492 5.60129 80.2194 7.20377 80.9489 8.96744C81.6785 10.7311 82.0531 12.6213 82.0513 14.5299V65.4701C82.0531 67.3787 81.6785 69.2689 80.9489 71.0326C80.2194 72.7962 79.1492 74.3987 77.7996 75.7483C76.45 77.0979 74.8475 78.1681 73.0839 78.8976C71.3202 79.6272 69.43 80.0018 67.5214 80H14.5299C12.6213 80.0018 10.7311 79.6272 8.96744 78.8976C7.20377 78.1681 5.60129 77.0979 4.25171 75.7483C2.90212 74.3987 1.83193 72.7962 1.10237 71.0326C0.372807 69.2689 -0.00179242 67.3787 6.44812e-06 65.4701V14.5299C-0.00179242 12.6213 0.372807 10.7311 1.10237 8.96744C1.83193 7.20377 2.90212 5.60129 4.25171 4.25171C5.60129 2.90212 7.20377 1.83193 8.96744 1.10237C10.7311 0.372807 12.6213 -0.00179242 14.5299 6.44812e-06V6.44812e-06Z" fill="#000B1D"/>
<path d="M32.4787 65.6409C37.199 65.6409 41.0257 61.8143 41.0257 57.0939V48.5469H32.4787C27.7583 48.5469 23.9316 52.3735 23.9316 57.0939C23.9316 61.8143 27.7583 65.6409 32.4787 65.6409Z" fill="#0ACF83"/>
<path d="M23.9316 39.9999C23.9316 35.2795 27.7583 31.4529 32.4787 31.4529H41.0257V48.5469H32.4787C27.7583 48.5469 23.9316 44.7203 23.9316 39.9999Z" fill="#A259FF"/>
<path d="M23.9316 22.9059C23.9316 18.1855 27.7583 14.3589 32.4787 14.3589H41.0257V31.4529H32.4787C27.7583 31.4529 23.9316 27.6263 23.9316 22.9059Z" fill="#F24E1E"/>
<path d="M41.0254 14.3589H49.5724C54.2928 14.3589 58.1194 18.1855 58.1194 22.9059C58.1194 27.6263 54.2928 31.4529 49.5724 31.4529H41.0254V14.3589Z" fill="#FF7262"/>
<path d="M58.1194 39.9999C58.1194 44.7203 54.2928 48.5469 49.5724 48.5469C44.852 48.5469 41.0254 44.7203 41.0254 39.9999C41.0254 35.2795 44.852 31.4529 49.5724 31.4529C54.2928 31.4529 58.1194 35.2795 58.1194 39.9999Z" fill="#1ABCFE"/>
</g>
<defs>
<clipPath id="clip0_982_4329">
<rect width="82.0513" height="80" fill="white"/>
</clipPath>
</defs>
</svg>
