<svg width="83" height="81" viewBox="0 0 83 81" fill="none" xmlns="http://www.w3.org/2000/svg">
<g id="Figma" clip-path="url(#clip0_775_676)">
<g id="Layer 2">
<g id="Layer 1">
<g id="Layer 2_2">
<g id="Surfaces">
<g id="Utility Surface">
<g id="Outline no shadow">
<g id="Vector">
<path d="M14.9264 0.551764H67.9179C69.8265 0.549965 71.7167 0.924565 73.4803 1.65412C75.244 2.38368 76.8465 3.45388 78.1961 4.80347C79.5457 6.15305 80.6159 7.75553 81.3454 9.51919C82.075 11.2829 82.4496 13.1731 82.4478 15.0817V66.0219C82.4496 67.9305 82.075 69.8207 81.3454 71.5843C80.6159 73.348 79.5457 74.9505 78.1961 76.3001C76.8465 77.6497 75.244 78.7198 73.4803 79.4494C71.7167 80.179 69.8265 80.5536 67.9179 80.5518H14.9264C13.0178 80.5536 11.1276 80.179 9.36392 79.4494C7.60026 78.7198 5.99778 77.6497 4.64819 76.3001C3.29861 74.9505 2.22841 73.348 1.49885 71.5843C0.769292 69.8207 0.394692 67.9305 0.396491 66.0219V15.0817C0.394692 13.1731 0.769292 11.2829 1.49885 9.51919C2.22841 7.75553 3.29861 6.15305 4.64819 4.80347C5.99778 3.45388 7.60026 2.38368 9.36392 1.65412C11.1276 0.924565 13.0178 0.549965 14.9264 0.551764Z" fill="#000B1D"/>
<path d="M82.4478 66.0219V15.0817C82.4496 13.1731 82.075 11.2829 81.3454 9.51919C80.6159 7.75553 79.5457 6.15305 78.1961 4.80347C76.8465 3.45388 75.244 2.38368 73.4803 1.65412C71.7167 0.924565 69.8265 0.549965 67.9179 0.551764L82.4478 66.0219ZM82.4478 66.0219C82.4496 67.9305 82.075 69.8207 81.3454 71.5843C80.6159 73.348 79.5457 74.9505 78.1961 76.3001C76.8465 77.6497 75.244 78.7198 73.4803 79.4494C71.7167 80.179 69.8265 80.5536 67.9179 80.5518H14.9264M82.4478 66.0219L14.9264 80.5518M14.9264 80.5518C13.0178 80.5536 11.1276 80.179 9.36392 79.4494M14.9264 80.5518L9.36392 79.4494M9.36392 79.4494C7.60026 78.7198 5.99778 77.6497 4.64819 76.3001M9.36392 79.4494L4.64819 76.3001M4.64819 76.3001C3.29861 74.9505 2.22841 73.348 1.49885 71.5843M4.64819 76.3001L1.49885 71.5843M1.49885 71.5843C0.769292 69.8207 0.394692 67.9305 0.396491 66.0219L1.49885 71.5843ZM14.9259 1.05176H14.9264L67.9179 1.05176L67.9183 1.05176C69.7612 1.05003 71.5863 1.41172 73.2892 2.11615C74.9921 2.82058 76.5394 3.85392 77.8425 5.15702C79.1456 6.46012 80.179 8.0074 80.8834 9.71032C81.5878 11.4132 81.9495 13.2383 81.9478 15.0812V15.0817V66.0219V66.0223C81.9495 67.8652 81.5878 69.6903 80.8834 71.3932C80.179 73.0961 79.1456 74.6434 77.8425 75.9465C76.5394 77.2496 74.9921 78.283 73.2892 78.9874C71.5863 79.6918 69.7612 80.0535 67.9183 80.0518H67.9179H14.9264H14.9259C13.0831 80.0535 11.258 79.6918 9.55504 78.9874C7.85213 78.283 6.30485 77.2496 5.00175 75.9465C3.69865 74.6434 2.66531 73.0961 1.96088 71.3932C1.25645 69.6903 0.894754 67.8652 0.896491 66.0223V66.0219L0.896491 15.0817L0.896491 15.0812C0.894754 13.2383 1.25645 11.4132 1.96088 9.71032C2.66531 8.0074 3.69865 6.46012 5.00175 5.15702C6.30485 3.85392 7.85213 2.82058 9.55504 2.11615C11.258 1.41172 13.0831 1.05003 14.9259 1.05176Z" stroke="white" stroke-opacity="0.1"/>
</g>
</g>
</g>
</g>
</g>
</g>
</g>
<g id="Group">
<g id="5">
<g id="path1_fill-link">
<path id="path1_fill" d="M32.8751 66.1926C37.5955 66.1926 41.4221 62.366 41.4221 57.6456V49.0986H32.8751C28.1547 49.0986 24.3281 52.9253 24.3281 57.6456C24.3281 62.366 28.1547 66.1926 32.8751 66.1926Z" fill="#0ACF83"/>
</g>
</g>
<g id="4">
<g id="path2_fill-link">
<path id="path2_fill" d="M24.3281 40.5516C24.3281 35.8313 28.1547 32.0046 32.8751 32.0046H41.4221V49.0987H32.8751C28.1547 49.0987 24.3281 45.272 24.3281 40.5516Z" fill="#A259FF"/>
</g>
</g>
<g id="3">
<g id="path2_fill-link_2">
<path id="path2_fill_2" d="M24.3281 23.4577C24.3281 18.7373 28.1547 14.9106 32.8751 14.9106H41.4221V32.0047H32.8751C28.1547 32.0047 24.3281 28.178 24.3281 23.4577Z" fill="#F24E1E"/>
</g>
</g>
<g id="2">
<g id="path3_fill-link">
<path id="path3_fill" d="M41.4219 14.9106H49.9689C54.6893 14.9106 58.5159 18.7373 58.5159 23.4577C58.5159 28.178 54.6893 32.0047 49.9689 32.0047H41.4219V14.9106Z" fill="#FF7262"/>
</g>
</g>
<g id="1">
<g id="path4_fill-link">
<path id="path4_fill" d="M58.5159 40.5516C58.5159 45.272 54.6893 49.0987 49.9689 49.0987C45.2485 49.0987 41.4219 45.272 41.4219 40.5516C41.4219 35.8313 45.2485 32.0046 49.9689 32.0046C54.6893 32.0046 58.5159 35.8313 58.5159 40.5516Z" fill="#1ABCFE"/>
</g>
</g>
</g>
</g>
<defs>
<clipPath id="clip0_775_676">
<rect width="82.0513" height="80" fill="white" transform="translate(0.396484 0.551758)"/>
</clipPath>
</defs>
</svg>
