<svg width="41" height="40" viewBox="0 0 41 40" fill="none" xmlns="http://www.w3.org/2000/svg">
<path d="M36.8564 13.9127C35.6936 9.70563 31.37 7.18822 27.1215 8.2381L27.05 8.27568C26.2598 8.46383 25.6201 8.91541 25.0557 9.51748C24.1902 10.4582 22.6135 11.0941 20.8487 11.0941C19.0801 11.0941 17.4657 10.4582 16.6379 9.51748C16.1111 8.91541 15.4337 8.46383 14.6435 8.27568L14.572 8.2381C10.3236 7.18822 5.99994 9.70563 4.8372 13.9127C3.52016 18.7255 2.84282 22.2175 3.03097 26.5789C3.06859 27.783 3.55778 28.8329 4.34801 29.6607C5.10061 30.4885 6.18809 31.0154 7.35463 31.1659C8.96894 31.354 10.5494 30.7144 11.5993 29.5102L12.6905 28.2722C14.271 26.2778 17.3529 24.9269 20.8825 24.9269C24.416 24.9269 27.4602 26.2778 29.0783 28.2722L30.1696 29.5102C31.2194 30.7144 32.7999 31.354 34.4142 31.1659C35.5807 31.053 36.6682 30.4885 37.4208 29.6607C38.211 28.8329 38.7002 27.783 38.7378 26.5789C38.8508 22.2175 38.1734 18.7255 36.8564 13.9127ZM15.7348 19.0642H13.857V20.9419C13.857 21.6192 13.2926 22.1837 12.6153 22.1837C11.9379 22.1837 11.3773 21.6192 11.3773 20.9419V19.0642H9.49576C8.81843 19.0642 8.25773 18.4997 8.25773 17.8224C8.25773 17.4837 8.40449 17.145 8.63028 16.923C8.85605 16.6973 9.15709 16.5467 9.53339 16.5467H11.4149V14.6276C11.4149 13.9503 11.9756 13.3896 12.6529 13.3896C12.9916 13.3896 13.3302 13.5401 13.556 13.7659C13.7818 13.9879 13.9323 14.289 13.9323 14.6653V16.5844H15.81C16.4874 16.5844 17.0518 17.145 17.0518 17.8224C17.0142 18.4997 16.4497 19.0642 15.7348 19.0642ZM29.6051 13.3144C30.4292 13.3144 31.1065 13.9879 31.1065 14.8534C31.1065 15.6812 30.4292 16.3586 29.6051 16.3586C28.7773 16.3586 28.0623 15.6812 28.0623 14.8534C28.0623 13.9879 28.7396 13.3144 29.6051 13.3144ZM26.5985 19.3652C25.7706 19.3652 25.0933 18.6879 25.0933 17.8224C25.0933 16.9945 25.7706 16.321 26.5985 16.321C27.4226 16.321 28.0999 16.9945 28.0999 17.8224C28.1375 18.6502 27.4602 19.3652 26.5985 19.3652ZM29.6051 22.3342C28.7773 22.3342 28.0623 21.6568 28.0623 20.7913C28.0623 19.9673 28.7396 19.2899 29.6051 19.2899C30.4292 19.2899 31.1065 19.9673 31.1065 20.7913C31.1065 21.6568 30.4292 22.3342 29.6051 22.3342ZM32.5741 19.3652C31.7463 19.3652 31.0313 18.6879 31.0313 17.8224C31.0313 16.9945 31.7086 16.321 32.5741 16.321C33.3982 16.321 34.0755 16.9945 34.0755 17.8224C34.0755 18.6502 33.3982 19.3652 32.5741 19.3652Z" fill="#B3EE28"/>
</svg>
