<svg width="83" height="80" viewBox="0 0 83 80" fill="none" xmlns="http://www.w3.org/2000/svg">
<g clip-path="url(#clip0_982_4353)">
<path d="M14.5827 6.44812e-06H67.5741C69.4827 -0.00179242 71.3729 0.372807 73.1366 1.10237C74.9003 1.83193 76.5027 2.90212 77.8523 4.25171C79.2019 5.60129 80.2721 7.20377 81.0017 8.96744C81.7312 10.7311 82.1058 12.6213 82.104 14.5299V65.4701C82.1058 67.3787 81.7312 69.2689 81.0017 71.0326C80.2721 72.7962 79.2019 74.3987 77.8523 75.7483C76.5027 77.0979 74.9003 78.1681 73.1366 78.8976C71.3729 79.6272 69.4827 80.0018 67.5741 80H14.5827C12.6741 80.0018 10.7838 79.6272 9.02017 78.8976C7.25651 78.1681 5.65403 77.0979 4.30444 75.7483C2.95486 74.3987 1.88466 72.7962 1.1551 71.0326C0.425542 69.2689 0.050942 67.3787 0.0527408 65.4701V14.5299C0.050942 12.6213 0.425542 10.7311 1.1551 8.96744C1.88466 7.20377 2.95486 5.60129 4.30444 4.25171C5.65403 2.90212 7.25651 1.83193 9.02017 1.10237C10.7838 0.372807 12.6741 -0.00179242 14.5827 6.44812e-06V6.44812e-06Z" fill="#330000"/>
<path d="M39.8145 47.9999H27.0965L24.4983 56.0341C24.4692 56.1805 24.3865 56.3108 24.2663 56.3994C24.1461 56.4879 23.9972 56.5284 23.8487 56.5127H17.4213C17.0453 56.5127 16.9427 56.3076 17.0453 55.8973L28.0538 24.205C28.1564 23.8631 28.2589 23.4871 28.3957 23.0768C28.5333 22.3441 28.602 21.6001 28.6008 20.8546C28.5906 20.769 28.6131 20.6826 28.6638 20.6129C28.7145 20.5431 28.7897 20.4952 28.8743 20.4785H37.729C38.0025 20.4785 38.1393 20.5811 38.1735 20.752L50.6521 55.9657C50.7547 56.3418 50.6521 56.5127 50.3102 56.5127H43.1649C43.0441 56.5243 42.923 56.493 42.823 56.4242C42.7229 56.3555 42.6503 56.2536 42.6179 56.1366L39.8145 47.9999ZM29.0795 41.0597H37.7632C37.5581 40.3418 37.2846 39.4871 36.9769 38.5982C36.6692 37.7093 36.3615 36.6836 36.0538 35.658C35.7461 34.6324 35.4042 33.5725 35.0624 32.5127C34.7205 31.4529 34.4128 30.4614 34.1393 29.47C33.8658 28.4785 33.6265 27.6238 33.3871 26.8033H33.3188C33.0115 28.2934 32.6235 29.7656 32.1564 31.2136C31.6436 32.8546 31.1307 34.564 30.5837 36.2734C30.1051 38.017 29.5923 39.6238 29.0795 41.0597Z" fill="#FF9A00"/>
<path d="M58.1061 26.3247C57.545 26.337 56.9869 26.2375 56.4646 26.0321C55.9422 25.8267 55.4659 25.5194 55.0634 25.1282C54.2801 24.2717 53.8629 23.1428 53.901 21.9829C53.8808 21.4177 53.98 20.8546 54.1921 20.3303C54.4041 19.806 54.7243 19.3323 55.1318 18.9401C55.9535 18.1634 57.0438 17.7347 58.1745 17.7435C59.5078 17.7435 60.5335 18.1538 61.2856 18.9401C62.043 19.7691 62.4477 20.8605 62.4138 21.9829C62.4347 22.5605 62.3395 23.1364 62.134 23.6767C61.9285 24.2169 61.6168 24.7105 61.2172 25.1282C60.8144 25.5385 60.3282 25.8576 59.7915 26.0641C59.2548 26.2705 58.6801 26.3594 58.1061 26.3247ZM54.2771 56V29.6752C54.2771 29.3333 54.4138 29.1965 54.7215 29.1965H61.4907C61.7984 29.1965 61.9352 29.3675 61.9352 29.6752V56C61.9352 56.376 61.7984 56.547 61.4907 56.547H54.7899C54.718 56.5529 54.6458 56.5425 54.5785 56.5166C54.5112 56.4907 54.4507 56.4499 54.4014 56.3973C54.3521 56.3447 54.3153 56.2817 54.2938 56.2129C54.2722 56.1441 54.2665 56.0713 54.2771 56Z" fill="#FF9A00"/>
</g>
<defs>
<clipPath id="clip0_982_4353">
<rect width="82.0513" height="80" fill="white" transform="translate(0.0527344)"/>
</clipPath>
</defs>
</svg>
