<svg width="83" height="81" viewBox="0 0 83 81" fill="none" xmlns="http://www.w3.org/2000/svg">
<g id="Illustrator" clip-path="url(#clip0_775_652)">
<g id="Layer 2">
<g id="Layer 1">
<g id="Layer 2_2">
<g id="Surfaces">
<g id="Drawing Surface">
<g id="Outline no shadow">
<g id="Vector">
<path d="M14.9791 0.551764H67.9706C69.8792 0.549965 71.7694 0.924565 73.5331 1.65412C75.2967 2.38368 76.8992 3.45388 78.2488 4.80347C79.5984 6.15305 80.6686 7.75553 81.3981 9.51919C82.1277 11.2829 82.5023 13.1731 82.5005 15.0817V66.0219C82.5023 67.9305 82.1277 69.8207 81.3981 71.5843C80.6686 73.348 79.5984 74.9505 78.2488 76.3001C76.8992 77.6497 75.2967 78.7198 73.5331 79.4494C71.7694 80.179 69.8792 80.5536 67.9706 80.5518H14.9791C13.0705 80.5536 11.1803 80.179 9.41665 79.4494C7.65299 78.7198 6.05051 77.6497 4.70093 76.3001C3.35134 74.9505 2.28114 73.348 1.55159 71.5843C0.822026 69.8207 0.447426 67.9305 0.449225 66.0219V15.0817C0.447426 13.1731 0.822026 11.2829 1.55159 9.51919C2.28114 7.75553 3.35134 6.15305 4.70093 4.80347C6.05051 3.45388 7.65299 2.38368 9.41665 1.65412C11.1803 0.924565 13.0705 0.549965 14.9791 0.551764Z" fill="#330000"/>
<path d="M82.5005 66.0219V15.0817C82.5023 13.1731 82.1277 11.2829 81.3981 9.51919C80.6686 7.75553 79.5984 6.15305 78.2488 4.80347C76.8992 3.45388 75.2967 2.38368 73.5331 1.65412C71.7694 0.924565 69.8792 0.549965 67.9706 0.551764L82.5005 66.0219ZM82.5005 66.0219C82.5023 67.9305 82.1277 69.8207 81.3981 71.5843C80.6686 73.348 79.5984 74.9505 78.2488 76.3001C76.8992 77.6497 75.2967 78.7198 73.5331 79.4494C71.7694 80.179 69.8792 80.5536 67.9706 80.5518H14.9791M82.5005 66.0219L14.9791 80.5518M14.9791 80.5518C13.0705 80.5536 11.1803 80.179 9.41665 79.4494M14.9791 80.5518L9.41665 79.4494M9.41665 79.4494C7.65299 78.7198 6.05051 77.6497 4.70093 76.3001M9.41665 79.4494L4.70093 76.3001M4.70093 76.3001C3.35134 74.9505 2.28114 73.348 1.55159 71.5843M4.70093 76.3001L1.55159 71.5843M1.55159 71.5843C0.822026 69.8207 0.447426 67.9305 0.449225 66.0219L1.55159 71.5843ZM14.9787 1.05176H14.9791L67.9706 1.05176L67.9711 1.05176C69.8139 1.05003 71.639 1.41172 73.3419 2.11615C75.0449 2.82058 76.5921 3.85392 77.8952 5.15702C79.1983 6.46012 80.2317 8.0074 80.9361 9.71032C81.6405 11.4132 82.0022 13.2383 82.0005 15.0812V15.0817V66.0219V66.0223C82.0022 67.8652 81.6405 69.6903 80.9361 71.3932C80.2317 73.0961 79.1983 74.6434 77.8952 75.9465C76.5921 77.2496 75.0449 78.283 73.3419 78.9874C71.639 79.6918 69.8139 80.0535 67.9711 80.0518H67.9706H14.9791H14.9787C13.1358 80.0535 11.3107 79.6918 9.60778 78.9874C7.90486 78.283 6.35758 77.2496 5.05448 75.9465C3.75138 74.6434 2.71805 73.0961 2.01362 71.3932C1.30918 69.6903 0.947488 67.8652 0.949225 66.0223V66.0219L0.949225 15.0817L0.949225 15.0812C0.947488 13.2383 1.30918 11.4132 2.01362 9.71032C2.71805 8.0074 3.75138 6.46012 5.05448 5.15702C6.35758 3.85392 7.90486 2.82058 9.60778 2.11615C11.3107 1.41172 13.1358 1.05003 14.9787 1.05176Z" stroke="white" stroke-opacity="0.1"/>
</g>
</g>
</g>
</g>
<g id="Outlined Mnemonics Logos">
<g id="Ai">
<path id="Vector_2" d="M40.211 48.5516H27.493L24.8947 56.5858C24.8657 56.7323 24.783 56.8626 24.6628 56.9511C24.5426 57.0397 24.3936 57.0801 24.2452 57.0645H17.8178C17.4418 57.0645 17.3392 56.8593 17.4418 56.4491L28.4503 24.7568C28.5529 24.4149 28.6554 24.0388 28.7922 23.6286C28.9298 22.8958 28.9984 22.1519 28.9973 21.4063C28.9871 21.3207 29.0096 21.2344 29.0603 21.1646C29.111 21.0949 29.1862 21.0469 29.2708 21.0303H38.1255C38.399 21.0303 38.5358 21.1328 38.57 21.3038L51.0486 56.5175C51.1512 56.8935 51.0486 57.0645 50.7067 57.0645H43.5614C43.4406 57.0761 43.3195 57.0448 43.2194 56.976C43.1194 56.9072 43.0468 56.8054 43.0144 56.6884L40.211 48.5516ZM29.4759 41.6115H38.1597C37.9546 40.8935 37.6811 40.0388 37.3734 39.1499C37.0657 38.261 36.758 37.2354 36.4503 36.2098C36.1426 35.1841 35.8007 34.1243 35.4588 33.0645C35.117 32.0046 34.8093 31.0132 34.5358 30.0217C34.2623 29.0303 34.0229 28.1756 33.7836 27.3551H33.7153C33.408 28.8451 33.02 30.3174 32.5529 31.7653C32.04 33.4063 31.5272 35.1157 30.9802 36.8251C30.5016 38.5687 29.9888 40.1756 29.4759 41.6115Z" fill="#FF9A00"/>
<path id="Vector_3" d="M58.5026 26.8765C57.9414 26.8888 57.3834 26.7893 56.861 26.5839C56.3387 26.3785 55.8624 26.0712 55.4599 25.6799C54.6766 24.8235 54.2594 23.6946 54.2975 22.5346C54.2773 21.9694 54.3765 21.4063 54.5885 20.8821C54.8006 20.3578 55.1208 19.8841 55.5283 19.4919C56.35 18.7152 57.4403 18.2864 58.571 18.2953C59.9043 18.2953 60.93 18.7056 61.6821 19.4919C62.4395 20.3209 62.8442 21.4123 62.8103 22.5346C62.8312 23.1122 62.736 23.6882 62.5305 24.2284C62.325 24.7687 62.0132 25.2622 61.6137 25.6799C61.2109 26.0902 60.7247 26.4094 60.188 26.6158C59.6513 26.8222 59.0766 26.9111 58.5026 26.8765ZM54.6736 56.5517V30.2269C54.6736 29.885 54.8103 29.7483 55.118 29.7483H61.8872C62.1949 29.7483 62.3317 29.9192 62.3317 30.2269V56.5517C62.3317 56.9278 62.1949 57.0987 61.8872 57.0987H55.1864C55.1145 57.1046 55.0423 57.0943 54.975 57.0683C54.9077 57.0424 54.8472 57.0017 54.7979 56.9491C54.7486 56.8965 54.7118 56.8334 54.6902 56.7646C54.6687 56.6958 54.663 56.623 54.6736 56.5517Z" fill="#FF9A00"/>
</g>
</g>
</g>
</g>
</g>
</g>
<defs>
<clipPath id="clip0_775_652">
<rect width="82.0513" height="80" fill="white" transform="translate(0.449219 0.551758)"/>
</clipPath>
</defs>
</svg>
