<svg width="83" height="80" viewBox="0 0 83 80" fill="none" xmlns="http://www.w3.org/2000/svg">
<g clip-path="url(#clip0_982_4377)">
<path d="M14.6842 6.44812e-06H67.6757C69.5843 -0.00179242 71.4745 0.372807 73.2382 1.10237C75.0018 1.83193 76.6043 2.90212 77.9539 4.25171C79.3035 5.60129 80.3737 7.20377 81.1032 8.96744C81.8328 10.7311 82.2074 12.6213 82.2056 14.5299V65.4701C82.2074 67.3787 81.8328 69.2689 81.1032 71.0326C80.3737 72.7962 79.3035 74.3987 77.9539 75.7483C76.6043 77.0979 75.0018 78.1681 73.2382 78.8976C71.4745 79.6272 69.5843 80.0018 67.6757 80H14.6842C12.7756 80.0018 10.8854 79.6272 9.12173 78.8976C7.35807 78.1681 5.75559 77.0979 4.406 75.7483C3.05642 74.3987 1.98622 72.7962 1.25666 71.0326C0.527104 69.2689 0.152504 67.3787 0.154303 65.4701V14.5299C0.152504 12.6213 0.527104 10.7311 1.25666 8.96744C1.98622 7.20377 3.05642 5.60129 4.406 4.25171C5.75559 2.90212 7.35807 1.83193 9.12173 1.10237C10.8854 0.372807 12.7756 -0.00179242 14.6842 6.44812e-06V6.44812e-06Z" fill="#001E36"/>
<path d="M43.23 56.5469H21.5548C21.1787 56.5469 21.0078 56.3418 21.0078 55.9316V20.9914C21.0001 20.9351 21.0039 20.8779 21.0188 20.8231C21.0337 20.7684 21.0594 20.7171 21.0945 20.6725C21.1296 20.6278 21.1733 20.5907 21.223 20.5633C21.2727 20.5358 21.3274 20.5187 21.3838 20.5128H28.2214C28.2642 20.505 28.3081 20.506 28.3505 20.5156C28.3929 20.5253 28.4328 20.5435 28.468 20.569C28.5032 20.5946 28.5328 20.627 28.555 20.6644C28.5773 20.7017 28.5917 20.7432 28.5975 20.7863V49.6068H44.3924C44.7342 49.6068 44.8368 49.7777 44.7684 50.0854L43.777 56.0341C43.7716 56.1127 43.7508 56.1894 43.7156 56.2598C43.6803 56.3302 43.6315 56.393 43.5719 56.4444C43.4716 56.5138 43.3519 56.5497 43.23 56.5469Z" fill="#31A8FF"/>
<path d="M48.7001 29.1966H54.683C54.8451 29.2005 55.0017 29.2555 55.1307 29.3537C55.2596 29.452 55.3542 29.5884 55.401 29.7436C55.5423 29.9855 55.6352 30.2526 55.6745 30.5299C55.7428 30.8718 55.8112 31.2479 55.8454 31.5898C55.8796 31.9317 55.9138 32.3761 55.9138 32.8205C56.9403 31.6221 58.1808 30.6251 59.5719 29.8804C61.1338 29.0337 62.8897 28.6094 64.6659 28.6496C64.7222 28.642 64.7794 28.6457 64.8342 28.6606C64.889 28.6755 64.9402 28.7013 64.9848 28.7363C65.0295 28.7714 65.0666 28.8151 65.0941 28.8648C65.1215 28.9145 65.1387 28.9692 65.1446 29.0257V35.8291C65.1446 36.1026 64.9736 36.2052 64.5975 36.2052C62.3819 36.0725 60.1665 36.471 58.136 37.3675C57.4435 37.6638 56.8162 38.0937 56.2899 38.6325V56.0684C56.2899 56.4103 56.1531 56.547 55.8454 56.547H49.1787C49.1157 56.5577 49.0511 56.5554 48.989 56.5403C48.9268 56.5252 48.8684 56.4976 48.8172 56.4592C48.7661 56.4209 48.7233 56.3725 48.6914 56.3171C48.6595 56.2616 48.6392 56.2003 48.6317 56.1368V37.0599C48.6317 36.2393 48.6317 35.3846 48.5975 34.4958C48.5634 33.6069 48.5634 32.718 48.5292 31.8291C48.495 31.0769 48.4266 30.3248 48.324 29.5727C48.315 29.5323 48.314 29.4905 48.3211 29.4497C48.3282 29.4089 48.3433 29.3699 48.3656 29.3349C48.3878 29.3 48.4167 29.2698 48.4507 29.246C48.4846 29.2223 48.5229 29.2055 48.5634 29.1966C48.5976 29.1624 48.6317 29.1624 48.7001 29.1966Z" fill="#31A8FF"/>
</g>
<defs>
<clipPath id="clip0_982_4377">
<rect width="82.0513" height="80" fill="white" transform="translate(0.154297)"/>
</clipPath>
</defs>
</svg>
