<svg width="83" height="81" viewBox="0 0 83 81" fill="none" xmlns="http://www.w3.org/2000/svg">
<g id="Lightroom" clip-path="url(#clip0_775_640)">
<g id="Layer 2">
<g id="Layer 1">
<g id="Layer 2_2">
<g id="Surfaces">
<g id="Photo Surface">
<g id="Outline no shadow">
<g id="Vector">
<path d="M15.0807 0.551764H68.0722C69.9808 0.549965 71.871 0.924565 73.6346 1.65412C75.3983 2.38368 77.0008 3.45388 78.3504 4.80347C79.7 6.15305 80.7702 7.75553 81.4997 9.51919C82.2293 11.2829 82.6039 13.1731 82.6021 15.0817V66.0219C82.6039 67.9305 82.2293 69.8207 81.4997 71.5843C80.7702 73.348 79.7 74.9505 78.3504 76.3001C77.0008 77.6497 75.3983 78.7198 73.6346 79.4494C71.871 80.179 69.9808 80.5536 68.0722 80.5518H15.0807C13.1721 80.5536 11.2819 80.179 9.51822 79.4494C7.75455 78.7198 6.15207 77.6497 4.80249 76.3001C3.4529 74.9505 2.38271 73.348 1.65315 71.5843C0.923588 69.8207 0.548989 67.9305 0.550788 66.0219V15.0817C0.548989 13.1731 0.923588 11.2829 1.65315 9.51919C2.38271 7.75553 3.4529 6.15305 4.80249 4.80347C6.15207 3.45388 7.75455 2.38368 9.51822 1.65412C11.2819 0.924565 13.1721 0.549965 15.0807 0.551764Z" fill="#001E36"/>
<path d="M82.6021 66.0219V15.0817C82.6039 13.1731 82.2293 11.2829 81.4997 9.51919C80.7702 7.75553 79.7 6.15305 78.3504 4.80347C77.0008 3.45388 75.3983 2.38368 73.6346 1.65412C71.871 0.924565 69.9808 0.549965 68.0722 0.551764L82.6021 66.0219ZM82.6021 66.0219C82.6039 67.9305 82.2293 69.8207 81.4997 71.5843C80.7702 73.348 79.7 74.9505 78.3504 76.3001C77.0008 77.6497 75.3983 78.7198 73.6346 79.4494C71.871 80.179 69.9808 80.5536 68.0722 80.5518H15.0807M82.6021 66.0219L15.0807 80.5518M15.0807 80.5518C13.1721 80.5536 11.2819 80.179 9.51822 79.4494M15.0807 80.5518L9.51822 79.4494M9.51822 79.4494C7.75455 78.7198 6.15207 77.6497 4.80249 76.3001M9.51822 79.4494L4.80249 76.3001M4.80249 76.3001C3.4529 74.9505 2.38271 73.348 1.65315 71.5843M4.80249 76.3001L1.65315 71.5843M1.65315 71.5843C0.923588 69.8207 0.548989 67.9305 0.550788 66.0219L1.65315 71.5843ZM15.0802 1.05176H15.0807L68.0722 1.05176L68.0726 1.05176C69.9155 1.05003 71.7406 1.41172 73.4435 2.11615C75.1464 2.82058 76.6937 3.85392 77.9968 5.15702C79.2999 6.46012 80.3333 8.0074 81.0377 9.71032C81.7421 11.4132 82.1038 13.2383 82.1021 15.0812V15.0817V66.0219V66.0223C82.1038 67.8652 81.7421 69.6903 81.0377 71.3932C80.3333 73.0961 79.2999 74.6434 77.9968 75.9465C76.6937 77.2496 75.1464 78.283 73.4435 78.9874C71.7406 79.6918 69.9155 80.0535 68.0726 80.0518H68.0722H15.0807H15.0802C13.2374 80.0535 11.4123 79.6918 9.70934 78.9874C8.00643 78.283 6.45914 77.2496 5.15604 75.9465C3.85294 74.6434 2.81961 73.0961 2.11518 71.3932C1.41075 69.6903 1.04905 67.8652 1.05079 66.0223V66.0219L1.05079 15.0817L1.05079 15.0812C1.04905 13.2383 1.41075 11.4132 2.11518 9.71032C2.81961 8.0074 3.85294 6.46012 5.15604 5.15702C6.45914 3.85392 8.00643 2.82058 9.70934 2.11615C11.4123 1.41172 13.2374 1.05003 15.0802 1.05176Z" stroke="white" stroke-opacity="0.1"/>
</g>
</g>
</g>
</g>
<g id="Outlined Mnemonics Logos">
<g id="Lr">
<path id="Vector_2" d="M43.6265 57.0987H21.9512C21.5752 57.0987 21.4042 56.8936 21.4042 56.4833V21.5432C21.3966 21.4869 21.4004 21.4297 21.4153 21.3749C21.4302 21.3201 21.4559 21.2689 21.491 21.2242C21.5261 21.1796 21.5697 21.1425 21.6194 21.115C21.6691 21.0876 21.7238 21.0704 21.7803 21.0645H28.6179C28.6607 21.0567 28.7046 21.0577 28.747 21.0674C28.7893 21.0771 28.8293 21.0952 28.8645 21.1208C28.8996 21.1464 28.9292 21.1788 28.9515 21.2161C28.9738 21.2535 28.9882 21.2949 28.994 21.338V50.1585H44.7889C45.1307 50.1585 45.2333 50.3295 45.1649 50.6372L44.1735 56.5859C44.1681 56.6644 44.1472 56.7412 44.112 56.8116C44.0768 56.882 44.028 56.9447 43.9683 56.9961C43.8681 57.0656 43.7484 57.1015 43.6265 57.0987Z" fill="#31A8FF"/>
<path id="Vector_3" d="M49.0966 29.7484H55.0795C55.2415 29.7523 55.3982 29.8073 55.5271 29.9055C55.6561 30.0037 55.7507 30.1402 55.7975 30.2954C55.9388 30.5372 56.0317 30.8043 56.071 31.0817C56.1393 31.4236 56.2077 31.7996 56.2419 32.1415C56.2761 32.4834 56.3103 32.9279 56.3103 33.3723C57.3368 32.1739 58.5773 31.1769 59.9684 30.4321C61.5303 29.5854 63.2862 29.1612 65.0624 29.2014C65.1187 29.1937 65.1759 29.1975 65.2307 29.2124C65.2854 29.2273 65.3367 29.253 65.3813 29.2881C65.426 29.3232 65.4631 29.3669 65.4905 29.4166C65.518 29.4663 65.5352 29.521 65.541 29.5774V36.3808C65.541 36.6543 65.3701 36.7569 64.994 36.7569C62.7783 36.6242 60.563 37.0228 58.5325 37.9193C57.84 38.2156 57.2127 38.6454 56.6863 39.1843V56.6202C56.6863 56.962 56.5496 57.0988 56.2419 57.0988H49.5752C49.5122 57.1094 49.4476 57.1071 49.3855 57.092C49.3233 57.0769 49.2649 57.0494 49.2137 57.011C49.1626 56.9726 49.1197 56.9243 49.0878 56.8688C49.056 56.8134 49.0357 56.7521 49.0282 56.6885V37.6116C49.0282 36.7911 49.0282 35.9364 48.994 35.0475C48.9598 34.1586 48.9598 33.2697 48.9257 32.3808C48.8915 31.6287 48.8231 30.8766 48.7205 30.1244C48.7115 30.084 48.7105 30.0422 48.7176 30.0014C48.7247 29.9606 48.7398 29.9216 48.7621 29.8867C48.7843 29.8517 48.8132 29.8215 48.8472 29.7978C48.8811 29.7741 48.9194 29.7573 48.9598 29.7484C48.994 29.7142 49.0282 29.7142 49.0966 29.7484Z" fill="#31A8FF"/>
</g>
</g>
</g>
</g>
</g>
</g>
<defs>
<clipPath id="clip0_775_640">
<rect width="82.0513" height="80" fill="white" transform="translate(0.550781 0.551758)"/>
</clipPath>
</defs>
</svg>
