<svg width="83" height="80" viewBox="0 0 83 80" fill="none" xmlns="http://www.w3.org/2000/svg">
<g clip-path="url(#clip0_982_4365)">
<path d="M14.6334 6.44812e-06H67.6249C69.5335 -0.00179242 71.4237 0.372807 73.1874 1.10237C74.951 1.83193 76.5535 2.90212 77.9031 4.25171C79.2527 5.60129 80.3229 7.20377 81.0524 8.96744C81.782 10.7311 82.1566 12.6213 82.1548 14.5299V65.4701C82.1566 67.3787 81.782 69.2689 81.0524 71.0326C80.3229 72.7962 79.2527 74.3987 77.9031 75.7483C76.5535 77.0979 74.951 78.1681 73.1874 78.8976C71.4237 79.6272 69.5335 80.0018 67.6249 80H14.6334C12.7248 80.0018 10.8346 79.6272 9.07095 78.8976C7.30729 78.1681 5.70481 77.0979 4.35522 75.7483C3.00564 74.3987 1.93544 72.7962 1.20588 71.0326C0.476323 69.2689 0.101723 67.3787 0.103522 65.4701V14.5299C0.101723 12.6213 0.476323 10.7311 1.20588 8.96744C1.93544 7.20377 3.00564 5.60129 4.35522 4.25171C5.70481 2.90212 7.30729 1.83193 9.07095 1.10237C10.8346 0.372807 12.7248 -0.00179242 14.6334 6.44812e-06V6.44812e-06Z" fill="#001E36"/>
<path d="M18.5664 56.1025V20.923C18.5664 20.6837 18.669 20.5469 18.9083 20.5469C19.4895 20.5469 20.0365 20.5469 20.8228 20.5127C21.6091 20.4785 22.498 20.4785 23.4211 20.4444C24.3442 20.4102 25.3356 20.4102 26.3955 20.376C27.4553 20.3418 28.4809 20.3418 29.5066 20.3418C32.31 20.3418 34.6348 20.6837 36.5493 21.4016C38.2655 21.9844 39.8305 22.9421 41.1305 24.205C42.2322 25.3103 43.0833 26.6395 43.6262 28.1025C44.1438 29.5272 44.4098 31.0311 44.4126 32.5469C44.4126 35.4871 43.7288 37.9144 42.3613 39.829C40.9874 41.7409 39.0693 43.1944 36.857 43.9999C34.5322 44.8546 31.9681 45.1623 29.1647 45.1623C28.3442 45.1623 27.7972 45.1623 27.4553 45.1281C27.1134 45.0939 26.6348 45.0939 25.9852 45.0939V56.0683C25.9928 56.1245 25.9891 56.1818 25.9742 56.2365C25.9593 56.2913 25.9335 56.3426 25.8985 56.3872C25.8634 56.4318 25.8197 56.469 25.77 56.4964C25.7203 56.5239 25.6656 56.541 25.6091 56.5469H18.9767C18.7032 56.5469 18.5664 56.4102 18.5664 56.1025ZM26.0194 27.1452V38.6324C26.498 38.6666 26.9425 38.7008 27.3527 38.7008H29.1647C30.4993 38.7024 31.826 38.4947 33.0963 38.0854C34.1862 37.7649 35.1599 37.1355 35.8997 36.2734C36.6177 35.4187 36.9596 34.2563 36.9596 32.7521C36.9917 31.6837 36.719 30.6283 36.1732 29.7093C35.6032 28.8217 34.7648 28.139 33.7801 27.7606C32.4966 27.2579 31.1233 27.0252 29.7459 27.0768C28.857 27.0768 28.0707 27.0768 27.4211 27.111C26.9538 27.0805 26.4847 27.0919 26.0194 27.1452Z" fill="#31A8FF"/>
<path d="M65.7466 36.5471C64.7144 36.0034 63.6089 35.6119 62.4646 35.3847C61.2078 35.1 59.9241 34.951 58.6355 34.9402C57.9436 34.9164 57.252 34.997 56.5842 35.1795C56.1584 35.2681 55.7807 35.5118 55.5244 35.8633C55.3516 36.1407 55.2571 36.4596 55.2509 36.7864C55.2668 37.1116 55.3866 37.4232 55.5928 37.6753C55.9168 38.0553 56.3116 38.3688 56.7552 38.5983C57.5415 39.0086 58.362 39.3847 59.1825 39.7265C61.0296 40.3484 62.7968 41.1861 64.4475 42.2223C65.5702 42.9282 66.4986 43.9037 67.1483 45.0599C67.6977 46.1505 67.9679 47.3605 67.9346 48.5812C67.9624 50.1972 67.4973 51.7832 66.6013 53.1282C65.6477 54.493 64.3171 55.5503 62.7722 56.171C61.097 56.8889 59.0457 57.265 56.5842 57.265C55.0235 57.2713 53.4659 57.1224 51.9346 56.8206C50.7289 56.6122 49.5562 56.2443 48.4475 55.7265C48.3283 55.6667 48.2291 55.5734 48.1623 55.458C48.0955 55.3426 48.0639 55.2101 48.0714 55.077V49.1282C48.0684 49.0698 48.0793 49.0115 48.103 48.9581C48.1268 48.9046 48.1628 48.8575 48.2081 48.8206C48.2563 48.7925 48.3122 48.7807 48.3676 48.7868C48.423 48.793 48.475 48.8168 48.5158 48.8547C49.8328 49.6311 51.2632 50.1964 52.7552 50.53C54.0724 50.8727 55.4282 51.0451 56.7893 51.0428C58.0885 51.0428 59.0116 50.8718 59.6269 50.5641C59.9014 50.4374 60.1341 50.2349 60.2976 49.9806C60.461 49.7263 60.5486 49.4306 60.55 49.1282C60.55 48.6496 60.2765 48.2052 59.7295 47.7607C59.1825 47.3163 58.0543 46.8035 56.3791 46.1539C54.6605 45.5483 53.0285 44.7208 51.5244 43.6924C50.4531 42.9288 49.5655 41.9361 48.9261 40.7864C48.3805 39.7066 48.1104 38.5086 48.1398 37.2992C48.1448 35.8404 48.5466 34.4104 49.3022 33.1624C50.1707 31.79 51.4172 30.6978 52.8919 30.0171C54.4987 29.1966 56.5158 28.8206 58.9432 28.8206C60.3619 28.821 61.7786 28.9238 63.1825 29.1282C64.1919 29.2648 65.1799 29.5291 66.1227 29.9146C66.2729 29.9678 66.3958 30.0785 66.4646 30.2223C66.504 30.3557 66.5269 30.4935 66.5329 30.6325V36.2052C66.5335 36.2716 66.5183 36.3372 66.4885 36.3967C66.4588 36.4561 66.4155 36.5076 66.362 36.5471C66.1631 36.6186 65.9455 36.6186 65.7466 36.5471Z" fill="#31A8FF"/>
</g>
<defs>
<clipPath id="clip0_982_4365">
<rect width="82.0513" height="80" fill="white" transform="translate(0.103516)"/>
</clipPath>
</defs>
</svg>
