<svg width="83" height="81" viewBox="0 0 83 81" fill="none" xmlns="http://www.w3.org/2000/svg">
<g id="Photoshop" clip-path="url(#clip0_775_700)">
<g id="Layer 2">
<g id="Layer 1">
<g id="Layer 2_2">
<g id="Surfaces">
<g id="Photo Surface">
<g id="Outline no shadow">
<g id="Vector">
<path d="M15.0299 0.551764H68.0214C69.93 0.549965 71.8202 0.924565 73.5839 1.65412C75.3475 2.38368 76.95 3.45388 78.2996 4.80347C79.6492 6.15305 80.7194 7.75553 81.4489 9.51919C82.1785 11.2829 82.5531 13.1731 82.5513 15.0817V66.0219C82.5531 67.9305 82.1785 69.8207 81.4489 71.5843C80.7194 73.348 79.6492 74.9505 78.2996 76.3001C76.95 77.6497 75.3475 78.7198 73.5839 79.4494C71.8202 80.179 69.93 80.5536 68.0214 80.5518H15.0299C13.1213 80.5536 11.2311 80.179 9.46744 79.4494C7.70377 78.7198 6.10129 77.6497 4.75171 76.3001C3.40212 74.9505 2.33193 73.348 1.60237 71.5843C0.872807 69.8207 0.498208 67.9305 0.500006 66.0219V15.0817C0.498208 13.1731 0.872807 11.2829 1.60237 9.51919C2.33193 7.75553 3.40212 6.15305 4.75171 4.80347C6.10129 3.45388 7.70377 2.38368 9.46744 1.65412C11.2311 0.924565 13.1213 0.549965 15.0299 0.551764Z" fill="#001E36"/>
<path d="M82.5513 66.0219V15.0817C82.5531 13.1731 82.1785 11.2829 81.4489 9.51919C80.7194 7.75553 79.6492 6.15305 78.2996 4.80347C76.95 3.45388 75.3475 2.38368 73.5839 1.65412C71.8202 0.924565 69.93 0.549965 68.0214 0.551764L82.5513 66.0219ZM82.5513 66.0219C82.5531 67.9305 82.1785 69.8207 81.4489 71.5843C80.7194 73.348 79.6492 74.9505 78.2996 76.3001C76.95 77.6497 75.3475 78.7198 73.5839 79.4494C71.8202 80.179 69.93 80.5536 68.0214 80.5518H15.0299M82.5513 66.0219L15.0299 80.5518M15.0299 80.5518C13.1213 80.5536 11.2311 80.179 9.46744 79.4494M15.0299 80.5518L9.46744 79.4494M9.46744 79.4494C7.70377 78.7198 6.10129 77.6497 4.75171 76.3001M9.46744 79.4494L4.75171 76.3001M4.75171 76.3001C3.40212 74.9505 2.33193 73.348 1.60237 71.5843M4.75171 76.3001L1.60237 71.5843M1.60237 71.5843C0.872807 69.8207 0.498208 67.9305 0.500006 66.0219L1.60237 71.5843ZM15.0295 1.05176H15.0299L68.0214 1.05176L68.0219 1.05176C69.8647 1.05003 71.6898 1.41172 73.3927 2.11615C75.0956 2.82058 76.6429 3.85392 77.946 5.15702C79.2491 6.46012 80.2825 8.0074 80.9869 9.71032C81.6913 11.4132 82.053 13.2383 82.0513 15.0812V15.0817V66.0219V66.0223C82.053 67.8652 81.6913 69.6903 80.9869 71.3932C80.2825 73.0961 79.2491 74.6434 77.946 75.9465C76.6429 77.2496 75.0956 78.283 73.3927 78.9874C71.6898 79.6918 69.8647 80.0535 68.0219 80.0518H68.0214H15.0299H15.0294C13.1866 80.0535 11.3615 79.6918 9.65856 78.9874C7.95565 78.283 6.40836 77.2496 5.10526 75.9465C3.80216 74.6434 2.76883 73.0961 2.0644 71.3932C1.35997 69.6903 0.998269 67.8652 1.00001 66.0223V66.0219L1.00001 15.0817L1.00001 15.0812C0.998269 13.2383 1.35997 11.4132 2.0644 9.71032C2.76883 8.0074 3.80216 6.46012 5.10526 5.15702C6.40836 3.85392 7.95565 2.82058 9.65856 2.11615C11.3615 1.41172 13.1866 1.05003 15.0295 1.05176Z" stroke="white" stroke-opacity="0.1"/>
</g>
</g>
</g>
</g>
<g id="Outlined Mnemonics Logos">
<g id="Ps">
<path id="Vector_2" d="M18.9629 56.6542V21.4748C18.9629 21.2354 19.0655 21.0987 19.3048 21.0987C19.886 21.0987 20.433 21.0987 21.2193 21.0645C22.0056 21.0303 22.8945 21.0303 23.8176 20.9961C24.7407 20.9619 25.7321 20.9619 26.792 20.9277C27.8518 20.8936 28.8774 20.8936 29.9031 20.8936C32.7065 20.8936 35.0313 21.2354 36.9458 21.9534C38.662 22.5362 40.227 23.4939 41.527 24.7568C42.6286 25.862 43.4798 27.1912 44.0227 28.6542C44.5402 30.079 44.8063 31.5828 44.809 33.0987C44.809 36.0389 44.1253 38.4662 42.7578 40.3807C41.3839 42.2926 39.4657 43.7462 37.2535 44.5517C34.9287 45.4064 32.3646 45.7141 29.5612 45.7141C28.7407 45.7141 28.1937 45.7141 27.8518 45.6799C27.5099 45.6457 27.0313 45.6457 26.3817 45.6457V56.6201C26.3893 56.6763 26.3856 56.7335 26.3707 56.7883C26.3558 56.8431 26.33 56.8943 26.295 56.939C26.2599 56.9836 26.2162 57.0207 26.1665 57.0482C26.1168 57.0756 26.0621 57.0928 26.0056 57.0987H19.3731C19.0996 57.0987 18.9629 56.9619 18.9629 56.6542ZM26.4159 27.697V39.1842C26.8945 39.2183 27.339 39.2525 27.7492 39.2525H29.5612C30.8958 39.2541 32.2225 39.0465 33.4928 38.6371C34.5827 38.3166 35.5564 37.6873 36.2962 36.8252C37.0142 35.9705 37.3561 34.8081 37.3561 33.3038C37.3882 32.2355 37.1155 31.1801 36.5697 30.2611C35.9997 29.3734 35.1613 28.6907 34.1766 28.3124C32.8931 27.8097 31.5198 27.5769 30.1424 27.6286C29.2535 27.6286 28.4672 27.6286 27.8176 27.6628C27.3503 27.6322 26.8812 27.6437 26.4159 27.697Z" fill="#31A8FF"/>
<path id="Vector_3" d="M66.1431 37.0988C65.1108 36.5551 64.0054 36.1636 62.861 35.9364C61.6042 35.6518 60.3205 35.5028 59.032 35.492C58.3401 35.4681 57.6485 35.5488 56.9807 35.7313C56.5549 35.8199 56.1771 36.0636 55.9209 36.415C55.7481 36.6924 55.6536 37.0114 55.6474 37.3381C55.6633 37.6634 55.7831 37.9749 55.9892 38.227C56.3133 38.6071 56.7081 38.9206 57.1516 39.1501C57.938 39.5603 58.7585 39.9364 59.579 40.2783C61.4261 40.9001 63.1933 41.7378 64.8439 42.774C65.9667 43.48 66.8951 44.4554 67.5448 45.6116C68.0942 46.7023 68.3644 47.9122 68.3311 49.133C68.3589 50.7489 67.8938 52.335 66.9978 53.68C66.0442 55.0447 64.7136 56.1021 63.1687 56.7227C61.4935 57.4407 59.4422 57.8168 56.9807 57.8168C55.4199 57.8231 53.8624 57.6742 52.3311 57.3723C51.1253 57.164 49.9527 56.7961 48.8439 56.2783C48.7247 56.2185 48.6256 56.1251 48.5588 56.0097C48.492 55.8943 48.4604 55.7619 48.4679 55.6287V49.68C48.4649 49.6216 48.4758 49.5633 48.4995 49.5098C48.5233 49.4564 48.5593 49.4093 48.6046 49.3723C48.6528 49.3443 48.7087 49.3324 48.7641 49.3386C48.8195 49.3447 48.8715 49.3685 48.9123 49.4065C50.2293 50.1829 51.6597 50.7481 53.1516 51.0817C54.4689 51.4245 55.8247 51.5968 57.1858 51.5945C58.485 51.5945 59.408 51.4236 60.0234 51.1159C60.2979 50.9891 60.5305 50.7867 60.694 50.5324C60.8575 50.278 60.9451 49.9823 60.9465 49.68C60.9465 49.2014 60.673 48.7569 60.126 48.3125C59.579 47.868 58.4508 47.3552 56.7756 46.7056C55.057 46.1001 53.425 45.2726 51.9209 44.2441C50.8496 43.4806 49.962 42.4878 49.3226 41.3381C48.777 40.2583 48.5068 39.0604 48.5363 37.8509C48.5413 36.3921 48.9431 34.9621 49.6986 33.7142C50.5671 32.3417 51.8137 31.2495 53.2884 30.5689C54.8952 29.7484 56.9123 29.3723 59.3397 29.3723C60.7583 29.3727 62.1751 29.4755 63.579 29.68C64.5884 29.8166 65.5763 30.0808 66.5192 30.4663C66.6694 30.5196 66.7923 30.6302 66.861 30.774C66.9004 30.9075 66.9234 31.0453 66.9294 31.1843V36.7569C66.93 36.8234 66.9147 36.889 66.885 36.9484C66.8553 37.0078 66.8119 37.0594 66.7585 37.0988C66.5596 37.1703 66.342 37.1703 66.1431 37.0988Z" fill="#31A8FF"/>
</g>
</g>
</g>
</g>
</g>
</g>
<defs>
<clipPath id="clip0_775_700">
<rect width="82.0513" height="80" fill="white" transform="translate(0.5 0.551758)"/>
</clipPath>
</defs>
</svg>
