<svg width="83" height="81" viewBox="0 0 83 81" fill="none" xmlns="http://www.w3.org/2000/svg">
<g id="Premiere Pro" clip-path="url(#clip0_775_664)">
<g id="Layer 2">
<g id="Layer 1">
<g id="Layer 2_2">
<g id="Surfaces">
<g id="Video Audio Surface">
<g id="Outline no shadow">
<g id="Vector">
<path d="M14.9791 0.551764H67.9706C69.8792 0.549965 71.7694 0.924565 73.5331 1.65412C75.2967 2.38368 76.8992 3.45388 78.2488 4.80347C79.5984 6.15305 80.6686 7.75553 81.3981 9.51919C82.1277 11.2829 82.5023 13.1731 82.5005 15.0817V66.0219C82.5023 67.9305 82.1277 69.8207 81.3981 71.5843C80.6686 73.348 79.5984 74.9505 78.2488 76.3001C76.8992 77.6497 75.2967 78.7198 73.5331 79.4494C71.7694 80.179 69.8792 80.5536 67.9706 80.5518H14.9791C13.0705 80.5536 11.1803 80.179 9.41665 79.4494C7.65299 78.7198 6.05051 77.6497 4.70093 76.3001C3.35134 74.9505 2.28114 73.348 1.55159 71.5843C0.822026 69.8207 0.447426 67.9305 0.449225 66.0219V15.0817C0.447426 13.1731 0.822026 11.2829 1.55159 9.51919C2.28114 7.75553 3.35134 6.15305 4.70093 4.80347C6.05051 3.45388 7.65299 2.38368 9.41665 1.65412C11.1803 0.924565 13.0705 0.549965 14.9791 0.551764Z" fill="#00005B"/>
<path d="M82.5005 66.0219V15.0817C82.5023 13.1731 82.1277 11.2829 81.3981 9.51919C80.6686 7.75553 79.5984 6.15305 78.2488 4.80347C76.8992 3.45388 75.2967 2.38368 73.5331 1.65412C71.7694 0.924565 69.8792 0.549965 67.9706 0.551764L82.5005 66.0219ZM82.5005 66.0219C82.5023 67.9305 82.1277 69.8207 81.3981 71.5843C80.6686 73.348 79.5984 74.9505 78.2488 76.3001C76.8992 77.6497 75.2967 78.7198 73.5331 79.4494C71.7694 80.179 69.8792 80.5536 67.9706 80.5518H14.9791M82.5005 66.0219L14.9791 80.5518M14.9791 80.5518C13.0705 80.5536 11.1803 80.179 9.41665 79.4494M14.9791 80.5518L9.41665 79.4494M9.41665 79.4494C7.65299 78.7198 6.05051 77.6497 4.70093 76.3001M9.41665 79.4494L4.70093 76.3001M4.70093 76.3001C3.35134 74.9505 2.28114 73.348 1.55159 71.5843M4.70093 76.3001L1.55159 71.5843M1.55159 71.5843C0.822026 69.8207 0.447426 67.9305 0.449225 66.0219L1.55159 71.5843ZM14.9787 1.05176H14.9791L67.9706 1.05176L67.9711 1.05176C69.8139 1.05003 71.639 1.41172 73.3419 2.11615C75.0449 2.82058 76.5921 3.85392 77.8952 5.15702C79.1983 6.46012 80.2317 8.0074 80.9361 9.71032C81.6405 11.4132 82.0022 13.2383 82.0005 15.0812V15.0817V66.0219V66.0223C82.0022 67.8652 81.6405 69.6903 80.9361 71.3932C80.2317 73.0961 79.1983 74.6434 77.8952 75.9465C76.5921 77.2496 75.0449 78.283 73.3419 78.9874C71.639 79.6918 69.8139 80.0535 67.9711 80.0518H67.9706H14.9791H14.9787C13.1358 80.0535 11.3107 79.6918 9.60778 78.9874C7.90486 78.283 6.35758 77.2496 5.05448 75.9465C3.75138 74.6434 2.71805 73.0961 2.01362 71.3932C1.30918 69.6903 0.947488 67.8652 0.949225 66.0223V66.0219L0.949225 15.0817L0.949225 15.0812C0.947488 13.2383 1.30918 11.4132 2.01362 9.71032C2.71805 8.0074 3.75138 6.46012 5.05448 5.15702C6.35758 3.85392 7.90486 2.82058 9.60778 2.11615C11.3107 1.41172 13.1358 1.05003 14.9787 1.05176Z" stroke="white" stroke-opacity="0.1"/>
</g>
</g>
</g>
</g>
<g id="Outlined Mnemonics Logos">
<g id="Pr">
<path id="Vector_2" d="M19.9375 56.6545V21.475C19.9375 21.2357 20.0401 21.0989 20.2794 21.0989C20.8606 21.0989 21.4076 21.0989 22.1939 21.0647C22.9802 21.0306 23.8691 21.0306 24.7922 20.9964C25.7153 20.9622 26.7067 20.9622 27.7666 20.928C28.8264 20.8938 29.852 20.8938 30.8777 20.8938C33.6811 20.8938 36.0059 21.2357 37.9204 21.9536C39.6366 22.5365 41.2016 23.4941 42.5016 24.757C43.6033 25.8623 44.4544 27.1915 44.9973 28.6545C45.5149 30.0792 45.7809 31.5831 45.7837 33.0989C45.7837 36.0391 45.0999 38.4664 43.7324 40.381C42.3585 42.2929 40.4403 43.7464 38.2281 44.5519C35.9033 45.4066 33.3392 45.7143 30.5358 45.7143C29.7153 45.7143 29.1683 45.7143 28.8264 45.6801C28.4845 45.6459 28.0059 45.6459 27.3563 45.6459V56.6203C27.3639 56.6766 27.3602 56.7338 27.3453 56.7885C27.3304 56.8433 27.3046 56.8946 27.2696 56.9392C27.2345 56.9838 27.1908 57.021 27.1411 57.0484C27.0914 57.0759 27.0367 57.093 26.9802 57.0989H20.3478C20.0743 57.0989 19.9375 56.9622 19.9375 56.6545ZM27.3905 27.6972V39.1844C27.8691 39.2186 28.3136 39.2528 28.7238 39.2528H30.5358C31.8704 39.2544 33.1971 39.0467 34.4674 38.6374C35.5573 38.3169 36.531 37.6875 37.2708 36.8254C37.9888 35.9707 38.3307 34.8083 38.3307 33.3041C38.3628 32.2357 38.0901 31.1803 37.5443 30.2613C36.9743 29.3737 36.1359 28.691 35.1512 28.3126C33.8677 27.8099 32.4944 27.5772 31.117 27.6288C30.2281 27.6288 29.4418 27.6288 28.7922 27.663C28.3249 27.6325 27.8558 27.6439 27.3905 27.6972Z" fill="#9999FF"/>
<path id="Vector_3" d="M50.5702 29.68H56.5531C56.7152 29.6839 56.8718 29.7389 57.0008 29.8372C57.1297 29.9354 57.2243 30.0718 57.2711 30.227C57.3754 30.5021 57.4443 30.7893 57.4762 31.0817C57.5446 31.4236 57.613 31.7997 57.6471 32.1416C57.6813 32.4834 57.7155 32.9279 57.7155 33.3723C58.742 32.1739 59.9825 31.1769 61.3736 30.4322C62.9628 29.5494 64.7523 29.0902 66.5702 29.0988C66.6265 29.0912 66.6837 29.0949 66.7385 29.1098C66.7933 29.1247 66.8445 29.1505 66.8891 29.1856C66.9338 29.2206 66.9709 29.2643 66.9983 29.314C67.0258 29.3637 67.043 29.4184 67.0489 29.4749V36.2783C67.0489 36.5518 66.8779 36.6544 66.5018 36.6544C65.2616 36.6138 64.0212 36.7286 62.8095 36.9963C61.822 37.2001 60.8592 37.5096 59.9377 37.9193C59.2763 38.2176 58.6829 38.6481 58.1941 39.1843V56.6202C58.1941 56.9621 58.0574 57.0988 57.7497 57.0988H51.0147C50.9516 57.1094 50.887 57.1071 50.8249 57.0921C50.7627 57.077 50.7043 57.0494 50.6532 57.011C50.602 56.9727 50.5592 56.9243 50.5273 56.8689C50.4954 56.8134 50.4751 56.7521 50.4677 56.6886V37.6116C50.4677 36.7911 50.4677 35.9364 50.4335 35.0475C50.3993 34.1586 50.3993 33.2698 50.3651 32.3809C50.3651 31.5945 50.2967 30.8424 50.2283 30.0561C50.2193 30.0157 50.2183 29.9739 50.2254 29.9331C50.2325 29.8923 50.2476 29.8533 50.2699 29.8183C50.2921 29.7834 50.321 29.7532 50.355 29.7295C50.3889 29.7057 50.4272 29.6889 50.4677 29.68C50.4677 29.6458 50.536 29.6458 50.5702 29.68Z" fill="#9999FF"/>
</g>
</g>
</g>
</g>
</g>
</g>
<defs>
<clipPath id="clip0_775_664">
<rect width="82.0513" height="80" fill="white" transform="translate(0.449219 0.551758)"/>
</clipPath>
</defs>
</svg>
