<svg width="83" height="80" viewBox="0 0 83 80" fill="none" xmlns="http://www.w3.org/2000/svg">
<g clip-path="url(#clip0_982_4389)">
<path d="M14.5827 6.44812e-06H67.5741C69.4827 -0.00179242 71.3729 0.372807 73.1366 1.10237C74.9003 1.83193 76.5027 2.90212 77.8523 4.25171C79.2019 5.60129 80.2721 7.20377 81.0017 8.96744C81.7312 10.7311 82.1058 12.6213 82.104 14.5299V65.4701C82.1058 67.3787 81.7312 69.2689 81.0017 71.0326C80.2721 72.7962 79.2019 74.3987 77.8523 75.7483C76.5027 77.0979 74.9003 78.1681 73.1366 78.8976C71.3729 79.6272 69.4827 80.0018 67.5741 80H14.5827C12.6741 80.0018 10.7838 79.6272 9.02017 78.8976C7.25651 78.1681 5.65403 77.0979 4.30444 75.7483C2.95486 74.3987 1.88466 72.7962 1.1551 71.0326C0.425542 69.2689 0.050942 67.3787 0.0527408 65.4701V14.5299C0.050942 12.6213 0.425542 10.7311 1.1551 8.96744C1.88466 7.20377 2.95486 5.60129 4.30444 4.25171C5.65403 2.90212 7.25651 1.83193 9.02017 1.10237C10.7838 0.372807 12.6741 -0.00179242 14.5827 6.44812e-06V6.44812e-06Z" fill="#00005B"/>
<path d="M19.541 56.1027V20.9232C19.541 20.6839 19.6436 20.5472 19.8829 20.5472C20.4641 20.5472 21.0111 20.5472 21.7974 20.513C22.5838 20.4788 23.4726 20.4788 24.3957 20.4446C25.3188 20.4104 26.3102 20.4104 27.3701 20.3762C28.4299 20.342 29.4555 20.342 30.4812 20.342C33.2846 20.342 35.6094 20.6839 37.5239 21.4019C39.2402 21.9847 40.8051 22.9423 42.1051 24.2053C43.2068 25.3105 44.0579 26.6397 44.6008 28.1027C45.1184 29.5275 45.3844 31.0313 45.3872 32.5472C45.3872 35.4873 44.7034 37.9147 43.3359 39.8292C41.962 41.7411 40.0439 43.1946 37.8316 44.0002C35.5068 44.8549 32.9427 45.1626 30.1393 45.1626C29.3188 45.1626 28.7718 45.1626 28.4299 45.1284C28.088 45.0942 27.6094 45.0942 26.9598 45.0942V56.0685C26.9675 56.1248 26.9637 56.182 26.9488 56.2368C26.9339 56.2916 26.9082 56.3428 26.8731 56.3874C26.838 56.4321 26.7943 56.4692 26.7446 56.4967C26.6949 56.5241 26.6402 56.5413 26.5838 56.5472H19.9513C19.6778 56.5472 19.541 56.4104 19.541 56.1027ZM26.994 27.1455V38.6326C27.4726 38.6668 27.9171 38.701 28.3273 38.701H30.1393C31.474 38.7026 32.8006 38.495 34.0709 38.0856C35.1608 37.7651 36.1345 37.1358 36.8743 36.2737C37.5923 35.419 37.9342 34.2566 37.9342 32.7523C37.9663 31.684 37.6936 30.6286 37.1479 29.7096C36.5778 28.8219 35.7394 28.1392 34.7547 27.7608C33.4712 27.2582 32.0979 27.0254 30.7205 27.0771C29.8316 27.0771 29.0453 27.0771 28.3957 27.1113C27.9284 27.0807 27.4593 27.0922 26.994 27.1455Z" fill="#9999FF"/>
<path d="M50.1737 29.1283H56.1566C56.3187 29.1322 56.4753 29.1872 56.6043 29.2854C56.7332 29.3836 56.8278 29.5201 56.8746 29.6753C56.9789 29.9503 57.0478 30.2375 57.0797 30.53C57.1481 30.8718 57.2165 31.2479 57.2507 31.5898C57.2848 31.9317 57.319 32.3761 57.319 32.8206C58.3456 31.6222 59.586 30.6252 60.9772 29.8804C62.5663 28.9976 64.3559 28.5385 66.1737 28.5471C66.23 28.5394 66.2872 28.5432 66.342 28.5581C66.3968 28.573 66.448 28.5987 66.4926 28.6338C66.5373 28.6689 66.5744 28.7126 66.6019 28.7623C66.6293 28.812 66.6465 28.8667 66.6524 28.9231V35.7265C66.6524 36.0001 66.4814 36.1026 66.1054 36.1026C64.8651 36.062 63.6247 36.1769 62.413 36.4445C61.4255 36.6484 60.4627 36.9578 59.5413 37.3676C58.8798 37.6658 58.2864 38.0963 57.7977 38.6325V56.0684C57.7977 56.4103 57.6609 56.5471 57.3532 56.5471H50.6182C50.5551 56.5577 50.4906 56.5554 50.4284 56.5403C50.3663 56.5252 50.3078 56.4976 50.2567 56.4593C50.2055 56.4209 50.1627 56.3725 50.1308 56.3171C50.0989 56.2617 50.0786 56.2003 50.0712 56.1368V37.0599C50.0712 36.2394 50.0712 35.3847 50.037 34.4958C50.0028 33.6069 50.0028 32.718 49.9686 31.8291C49.9686 31.0428 49.9002 30.2907 49.8319 29.5043C49.8228 29.4639 49.8218 29.4221 49.8289 29.3813C49.836 29.3405 49.8512 29.3015 49.8734 29.2666C49.8956 29.2316 49.9245 29.2014 49.9585 29.1777C49.9924 29.154 50.0307 29.1372 50.0712 29.1283C50.0712 29.0941 50.1395 29.0941 50.1737 29.1283Z" fill="#9999FF"/>
</g>
<defs>
<clipPath id="clip0_982_4389">
<rect width="82.0513" height="80" fill="white" transform="translate(0.0527344)"/>
</clipPath>
</defs>
</svg>
